<mxfile host="app.diagrams.net" modified="2023-01-04T17:19:11.763Z" agent="5.0 (Windows NT 10.0; Win64; x64) AppleWebKit/537.36 (KHTML, like Gecko) Chrome/108.0.0.0 Safari/537.36 OPR/94.0.0.0" etag="vDfv_W7ERK43nWwZNvKD" version="20.8.0" type="github">
  <diagram name="Page-1" id="e7e014a7-5840-1c2e-5031-d8a46d1fe8dd">
    <mxGraphModel dx="1683" dy="903" grid="1" gridSize="10" guides="1" tooltips="1" connect="1" arrows="1" fold="1" page="1" pageScale="1" pageWidth="1169" pageHeight="826" background="none" math="0" shadow="0">
      <root>
        <mxCell id="0" />
        <mxCell id="1" parent="0" />
        <mxCell id="EQnFLqJTd3W4uoFZLphS-99" value="" style="ellipse;html=1;shape=endState;fillColor=#000000;strokeColor=#ff0000;" parent="1" vertex="1">
          <mxGeometry x="805" y="884" width="30" height="30" as="geometry" />
        </mxCell>
        <mxCell id="EQnFLqJTd3W4uoFZLphS-114" style="edgeStyle=orthogonalEdgeStyle;rounded=0;orthogonalLoop=1;jettySize=auto;html=1;entryX=0;entryY=0.5;entryDx=0;entryDy=0;" parent="1" source="EQnFLqJTd3W4uoFZLphS-100" target="EQnFLqJTd3W4uoFZLphS-111" edge="1">
          <mxGeometry relative="1" as="geometry" />
        </mxCell>
        <mxCell id="EQnFLqJTd3W4uoFZLphS-100" value="Registrace" style="rounded=1;whiteSpace=wrap;html=1;arcSize=40;fontColor=#000000;fillColor=#ffffc0;strokeColor=#ff0000;" parent="1" vertex="1">
          <mxGeometry x="385" y="160" width="120" height="40" as="geometry" />
        </mxCell>
        <mxCell id="EQnFLqJTd3W4uoFZLphS-102" value="" style="ellipse;html=1;shape=startState;fillColor=#000000;strokeColor=#ff0000;" parent="1" vertex="1">
          <mxGeometry x="430" y="10" width="30" height="30" as="geometry" />
        </mxCell>
        <mxCell id="EQnFLqJTd3W4uoFZLphS-107" style="edgeStyle=orthogonalEdgeStyle;rounded=0;orthogonalLoop=1;jettySize=auto;html=1;entryX=0.5;entryY=0;entryDx=0;entryDy=0;" parent="1" source="EQnFLqJTd3W4uoFZLphS-106" target="EQnFLqJTd3W4uoFZLphS-100" edge="1">
          <mxGeometry relative="1" as="geometry" />
        </mxCell>
        <mxCell id="EQnFLqJTd3W4uoFZLphS-112" style="edgeStyle=orthogonalEdgeStyle;rounded=0;orthogonalLoop=1;jettySize=auto;html=1;entryX=0.5;entryY=0;entryDx=0;entryDy=0;" parent="1" source="EQnFLqJTd3W4uoFZLphS-106" target="EQnFLqJTd3W4uoFZLphS-111" edge="1">
          <mxGeometry relative="1" as="geometry" />
        </mxCell>
        <mxCell id="EQnFLqJTd3W4uoFZLphS-106" value="" style="rhombus;whiteSpace=wrap;html=1;" parent="1" vertex="1">
          <mxGeometry x="417.5" y="70" width="55" height="30" as="geometry" />
        </mxCell>
        <mxCell id="EQnFLqJTd3W4uoFZLphS-109" style="edgeStyle=orthogonalEdgeStyle;rounded=0;orthogonalLoop=1;jettySize=auto;html=1;entryX=0.5;entryY=0;entryDx=0;entryDy=0;exitX=0.5;exitY=1;exitDx=0;exitDy=0;" parent="1" source="EQnFLqJTd3W4uoFZLphS-102" target="EQnFLqJTd3W4uoFZLphS-106" edge="1">
          <mxGeometry relative="1" as="geometry">
            <mxPoint x="445" y="140" as="sourcePoint" />
          </mxGeometry>
        </mxCell>
        <mxCell id="EQnFLqJTd3W4uoFZLphS-110" value="[Uživatel neexistuje]" style="text;html=1;align=center;verticalAlign=middle;resizable=0;points=[];autosize=1;strokeColor=none;fillColor=none;" parent="1" vertex="1">
          <mxGeometry x="395" y="95" width="130" height="30" as="geometry" />
        </mxCell>
        <mxCell id="EQnFLqJTd3W4uoFZLphS-130" style="edgeStyle=orthogonalEdgeStyle;rounded=0;orthogonalLoop=1;jettySize=auto;html=1;entryX=0.5;entryY=0;entryDx=0;entryDy=0;" parent="1" source="EQnFLqJTd3W4uoFZLphS-111" target="EQnFLqJTd3W4uoFZLphS-129" edge="1">
          <mxGeometry relative="1" as="geometry" />
        </mxCell>
        <mxCell id="EQnFLqJTd3W4uoFZLphS-111" value="Přihlášení" style="rounded=1;whiteSpace=wrap;html=1;arcSize=40;fontColor=#000000;fillColor=#ffffc0;strokeColor=#ff0000;" parent="1" vertex="1">
          <mxGeometry x="540" y="160" width="120" height="40" as="geometry" />
        </mxCell>
        <mxCell id="EQnFLqJTd3W4uoFZLphS-113" value="[OK]" style="text;html=1;align=center;verticalAlign=middle;resizable=0;points=[];autosize=1;strokeColor=none;fillColor=none;" parent="1" vertex="1">
          <mxGeometry x="510" y="60" width="50" height="30" as="geometry" />
        </mxCell>
        <mxCell id="EQnFLqJTd3W4uoFZLphS-117" value="Navolení míst" style="rounded=1;whiteSpace=wrap;html=1;arcSize=40;fontColor=#000000;fillColor=#ffffc0;strokeColor=#ff0000;" parent="1" vertex="1">
          <mxGeometry x="430" y="400" width="85" height="40" as="geometry" />
        </mxCell>
        <mxCell id="EQnFLqJTd3W4uoFZLphS-118" value="Vybrání &lt;br&gt;počátečního místa" style="rounded=1;whiteSpace=wrap;html=1;arcSize=40;fontColor=#000000;fillColor=#ffffc0;strokeColor=#ff0000;" parent="1" vertex="1">
          <mxGeometry x="540" y="400" width="120" height="40" as="geometry" />
        </mxCell>
        <mxCell id="EQnFLqJTd3W4uoFZLphS-119" value="Vybrání &lt;br&gt;koncového místa" style="rounded=1;whiteSpace=wrap;html=1;arcSize=40;fontColor=#000000;fillColor=#ffffc0;strokeColor=#ff0000;" parent="1" vertex="1">
          <mxGeometry x="670" y="400" width="120" height="40" as="geometry" />
        </mxCell>
        <mxCell id="EQnFLqJTd3W4uoFZLphS-120" value="" style="endArrow=classic;html=1;rounded=0;exitX=0;exitY=1;exitDx=0;exitDy=0;entryX=0.5;entryY=0;entryDx=0;entryDy=0;" parent="1" source="WmJ-jYdtbcJeDlTPOBBi-1" target="EQnFLqJTd3W4uoFZLphS-117" edge="1">
          <mxGeometry width="50" height="50" relative="1" as="geometry">
            <mxPoint x="594.8599999999999" y="344.17600000000004" as="sourcePoint" />
            <mxPoint x="510" y="448" as="targetPoint" />
          </mxGeometry>
        </mxCell>
        <mxCell id="EQnFLqJTd3W4uoFZLphS-123" value="" style="endArrow=classic;html=1;rounded=0;exitX=0.5;exitY=1;exitDx=0;exitDy=0;entryX=0.5;entryY=0;entryDx=0;entryDy=0;" parent="1" source="WmJ-jYdtbcJeDlTPOBBi-1" target="EQnFLqJTd3W4uoFZLphS-118" edge="1">
          <mxGeometry width="50" height="50" relative="1" as="geometry">
            <mxPoint x="605.8199999999999" y="344.11199999999997" as="sourcePoint" />
            <mxPoint x="437.5" y="450" as="targetPoint" />
          </mxGeometry>
        </mxCell>
        <mxCell id="EQnFLqJTd3W4uoFZLphS-124" value="" style="endArrow=classic;html=1;rounded=0;entryX=0.467;entryY=0;entryDx=0;entryDy=0;entryPerimeter=0;exitX=1;exitY=1;exitDx=0;exitDy=0;" parent="1" target="EQnFLqJTd3W4uoFZLphS-119" edge="1" source="WmJ-jYdtbcJeDlTPOBBi-1">
          <mxGeometry width="50" height="50" relative="1" as="geometry">
            <mxPoint x="610" y="344" as="sourcePoint" />
            <mxPoint x="577.5" y="450" as="targetPoint" />
          </mxGeometry>
        </mxCell>
        <mxCell id="EQnFLqJTd3W4uoFZLphS-125" value="" style="endArrow=classic;html=1;rounded=0;exitX=0.464;exitY=1.026;exitDx=0;exitDy=0;exitPerimeter=0;entryX=0;entryY=0;entryDx=0;entryDy=0;" parent="1" target="WmJ-jYdtbcJeDlTPOBBi-4" edge="1" source="EQnFLqJTd3W4uoFZLphS-117">
          <mxGeometry width="50" height="50" relative="1" as="geometry">
            <mxPoint x="429.99999999999994" y="430.00200000000007" as="sourcePoint" />
            <mxPoint x="590" y="510" as="targetPoint" />
          </mxGeometry>
        </mxCell>
        <mxCell id="EQnFLqJTd3W4uoFZLphS-127" value="" style="endArrow=classic;html=1;rounded=0;entryX=0.5;entryY=0;entryDx=0;entryDy=0;" parent="1" target="WmJ-jYdtbcJeDlTPOBBi-4" edge="1">
          <mxGeometry width="50" height="50" relative="1" as="geometry">
            <mxPoint x="600" y="440" as="sourcePoint" />
            <mxPoint x="599.6799999999998" y="509.7600000000001" as="targetPoint" />
          </mxGeometry>
        </mxCell>
        <mxCell id="EQnFLqJTd3W4uoFZLphS-128" value="" style="endArrow=classic;html=1;rounded=0;exitX=0.457;exitY=1.006;exitDx=0;exitDy=0;exitPerimeter=0;entryX=1;entryY=0;entryDx=0;entryDy=0;" parent="1" source="EQnFLqJTd3W4uoFZLphS-119" target="WmJ-jYdtbcJeDlTPOBBi-4" edge="1">
          <mxGeometry width="50" height="50" relative="1" as="geometry">
            <mxPoint x="450" y="450.00199999999995" as="sourcePoint" />
            <mxPoint x="610.3199999999999" y="510.1600000000001" as="targetPoint" />
          </mxGeometry>
        </mxCell>
        <mxCell id="EQnFLqJTd3W4uoFZLphS-132" style="edgeStyle=orthogonalEdgeStyle;rounded=0;orthogonalLoop=1;jettySize=auto;html=1;entryX=0.533;entryY=0.044;entryDx=0;entryDy=0;entryPerimeter=0;exitX=0.5;exitY=1;exitDx=0;exitDy=0;" parent="1" source="EQnFLqJTd3W4uoFZLphS-129" edge="1">
          <mxGeometry relative="1" as="geometry">
            <mxPoint x="599.96" y="340.43999999999994" as="targetPoint" />
            <Array as="points" />
            <mxPoint x="596" y="280" as="sourcePoint" />
          </mxGeometry>
        </mxCell>
        <mxCell id="EQnFLqJTd3W4uoFZLphS-137" style="edgeStyle=orthogonalEdgeStyle;rounded=0;orthogonalLoop=1;jettySize=auto;html=1;entryX=0.5;entryY=0;entryDx=0;entryDy=0;" parent="1" source="EQnFLqJTd3W4uoFZLphS-129" target="EQnFLqJTd3W4uoFZLphS-134" edge="1">
          <mxGeometry relative="1" as="geometry">
            <mxPoint x="820" y="620" as="targetPoint" />
            <Array as="points">
              <mxPoint x="820" y="265" />
            </Array>
          </mxGeometry>
        </mxCell>
        <mxCell id="EQnFLqJTd3W4uoFZLphS-129" value="" style="rhombus;whiteSpace=wrap;html=1;" parent="1" vertex="1">
          <mxGeometry x="572.5" y="250" width="55" height="30" as="geometry" />
        </mxCell>
        <mxCell id="EQnFLqJTd3W4uoFZLphS-133" value="[nová trasa]" style="text;html=1;align=center;verticalAlign=middle;resizable=0;points=[];autosize=1;strokeColor=none;fillColor=none;" parent="1" vertex="1">
          <mxGeometry x="590" y="290" width="90" height="30" as="geometry" />
        </mxCell>
        <mxCell id="EQnFLqJTd3W4uoFZLphS-139" style="edgeStyle=orthogonalEdgeStyle;rounded=0;orthogonalLoop=1;jettySize=auto;html=1;entryX=0.5;entryY=0;entryDx=0;entryDy=0;" parent="1" target="EQnFLqJTd3W4uoFZLphS-99" edge="1">
          <mxGeometry relative="1" as="geometry">
            <mxPoint x="820" y="831" as="sourcePoint" />
          </mxGeometry>
        </mxCell>
        <mxCell id="WmJ-jYdtbcJeDlTPOBBi-27" value="" style="edgeStyle=orthogonalEdgeStyle;rounded=0;orthogonalLoop=1;jettySize=auto;html=1;entryX=0.508;entryY=0.013;entryDx=0;entryDy=0;entryPerimeter=0;" edge="1" parent="1" source="EQnFLqJTd3W4uoFZLphS-134" target="WmJ-jYdtbcJeDlTPOBBi-10">
          <mxGeometry relative="1" as="geometry">
            <Array as="points" />
          </mxGeometry>
        </mxCell>
        <mxCell id="EQnFLqJTd3W4uoFZLphS-134" value="Začni výpočet" style="rounded=1;whiteSpace=wrap;html=1;arcSize=40;fontColor=#000000;fillColor=#ffffc0;strokeColor=#ff0000;" parent="1" vertex="1">
          <mxGeometry x="760" y="546" width="120" height="40" as="geometry" />
        </mxCell>
        <mxCell id="EQnFLqJTd3W4uoFZLphS-138" value="[použítí uložené trasy]" style="text;html=1;align=center;verticalAlign=middle;resizable=0;points=[];autosize=1;strokeColor=none;fillColor=none;" parent="1" vertex="1">
          <mxGeometry x="615" y="235" width="140" height="30" as="geometry" />
        </mxCell>
        <mxCell id="WmJ-jYdtbcJeDlTPOBBi-1" value="" style="rounded=0;whiteSpace=wrap;html=1;fillColor=#000000;" vertex="1" parent="1">
          <mxGeometry x="540" y="340" width="120" height="10" as="geometry" />
        </mxCell>
        <mxCell id="WmJ-jYdtbcJeDlTPOBBi-7" value="" style="edgeStyle=orthogonalEdgeStyle;rounded=0;orthogonalLoop=1;jettySize=auto;html=1;" edge="1" parent="1" source="WmJ-jYdtbcJeDlTPOBBi-4">
          <mxGeometry relative="1" as="geometry">
            <mxPoint x="600" y="561" as="targetPoint" />
          </mxGeometry>
        </mxCell>
        <mxCell id="WmJ-jYdtbcJeDlTPOBBi-4" value="" style="rounded=0;whiteSpace=wrap;html=1;fillColor=#000000;" vertex="1" parent="1">
          <mxGeometry x="540" y="491" width="120" height="10" as="geometry" />
        </mxCell>
        <mxCell id="WmJ-jYdtbcJeDlTPOBBi-22" style="edgeStyle=orthogonalEdgeStyle;rounded=0;orthogonalLoop=1;jettySize=auto;html=1;entryX=0;entryY=0.5;entryDx=0;entryDy=0;" edge="1" parent="1" source="WmJ-jYdtbcJeDlTPOBBi-9" target="EQnFLqJTd3W4uoFZLphS-129">
          <mxGeometry relative="1" as="geometry">
            <Array as="points">
              <mxPoint x="380" y="265" />
            </Array>
          </mxGeometry>
        </mxCell>
        <mxCell id="WmJ-jYdtbcJeDlTPOBBi-9" value="Uložit trasu" style="rounded=1;whiteSpace=wrap;html=1;arcSize=40;fontColor=#000000;fillColor=#ffffc0;strokeColor=#ff0000;" vertex="1" parent="1">
          <mxGeometry x="320" y="546" width="120" height="40" as="geometry" />
        </mxCell>
        <mxCell id="WmJ-jYdtbcJeDlTPOBBi-10" value="" style="rounded=0;whiteSpace=wrap;html=1;fillColor=#000000;" vertex="1" parent="1">
          <mxGeometry x="759.5" y="640" width="120" height="10" as="geometry" />
        </mxCell>
        <mxCell id="WmJ-jYdtbcJeDlTPOBBi-24" value="" style="edgeStyle=orthogonalEdgeStyle;rounded=0;orthogonalLoop=1;jettySize=auto;html=1;" edge="1" parent="1" source="WmJ-jYdtbcJeDlTPOBBi-13" target="WmJ-jYdtbcJeDlTPOBBi-16">
          <mxGeometry relative="1" as="geometry" />
        </mxCell>
        <mxCell id="WmJ-jYdtbcJeDlTPOBBi-13" value="Nalezení nejkratší trasy" style="rounded=1;whiteSpace=wrap;html=1;arcSize=40;fontColor=#000000;fillColor=#ffffc0;strokeColor=#ff0000;" vertex="1" parent="1">
          <mxGeometry x="678" y="690" width="120" height="40" as="geometry" />
        </mxCell>
        <mxCell id="WmJ-jYdtbcJeDlTPOBBi-25" value="" style="edgeStyle=orthogonalEdgeStyle;rounded=0;orthogonalLoop=1;jettySize=auto;html=1;" edge="1" parent="1" source="WmJ-jYdtbcJeDlTPOBBi-14" target="WmJ-jYdtbcJeDlTPOBBi-18">
          <mxGeometry relative="1" as="geometry" />
        </mxCell>
        <mxCell id="WmJ-jYdtbcJeDlTPOBBi-14" value="Nalezení nejrychlejší trasy" style="rounded=1;whiteSpace=wrap;html=1;arcSize=40;fontColor=#000000;fillColor=#ffffc0;strokeColor=#ff0000;" vertex="1" parent="1">
          <mxGeometry x="840.5" y="690" width="120" height="40" as="geometry" />
        </mxCell>
        <mxCell id="WmJ-jYdtbcJeDlTPOBBi-15" value="" style="rounded=0;whiteSpace=wrap;html=1;fillColor=#000000;" vertex="1" parent="1">
          <mxGeometry x="760" y="821" width="120" height="10" as="geometry" />
        </mxCell>
        <mxCell id="WmJ-jYdtbcJeDlTPOBBi-16" value="Spočítej délku trasy" style="rounded=1;whiteSpace=wrap;html=1;arcSize=40;fontColor=#000000;fillColor=#ffffc0;strokeColor=#ff0000;" vertex="1" parent="1">
          <mxGeometry x="678" y="750" width="120" height="40" as="geometry" />
        </mxCell>
        <mxCell id="WmJ-jYdtbcJeDlTPOBBi-18" value="Spočítej čas trasy" style="rounded=1;whiteSpace=wrap;html=1;arcSize=40;fontColor=#000000;fillColor=#ffffc0;strokeColor=#ff0000;" vertex="1" parent="1">
          <mxGeometry x="840.5" y="750" width="120" height="40" as="geometry" />
        </mxCell>
        <mxCell id="WmJ-jYdtbcJeDlTPOBBi-19" value="" style="endArrow=none;html=1;rounded=0;exitX=0.513;exitY=0.509;exitDx=0;exitDy=0;exitPerimeter=0;" edge="1" parent="1" target="WmJ-jYdtbcJeDlTPOBBi-11">
          <mxGeometry width="50" height="50" relative="1" as="geometry">
            <mxPoint x="600.52" y="491.3600000000001" as="sourcePoint" />
            <mxPoint x="600.0513225424397" y="674" as="targetPoint" />
          </mxGeometry>
        </mxCell>
        <mxCell id="WmJ-jYdtbcJeDlTPOBBi-20" value="" style="edgeStyle=orthogonalEdgeStyle;rounded=0;orthogonalLoop=1;jettySize=auto;html=1;" edge="1" parent="1" source="WmJ-jYdtbcJeDlTPOBBi-11" target="WmJ-jYdtbcJeDlTPOBBi-9">
          <mxGeometry relative="1" as="geometry" />
        </mxCell>
        <mxCell id="WmJ-jYdtbcJeDlTPOBBi-21" value="" style="edgeStyle=orthogonalEdgeStyle;rounded=0;orthogonalLoop=1;jettySize=auto;html=1;" edge="1" parent="1" source="WmJ-jYdtbcJeDlTPOBBi-11" target="EQnFLqJTd3W4uoFZLphS-134">
          <mxGeometry relative="1" as="geometry" />
        </mxCell>
        <mxCell id="WmJ-jYdtbcJeDlTPOBBi-11" value="" style="rhombus;whiteSpace=wrap;html=1;" vertex="1" parent="1">
          <mxGeometry x="572.5" y="551" width="55" height="30" as="geometry" />
        </mxCell>
        <mxCell id="WmJ-jYdtbcJeDlTPOBBi-29" value="" style="endArrow=classic;html=1;rounded=0;exitX=0;exitY=1;exitDx=0;exitDy=0;entryX=0.5;entryY=0;entryDx=0;entryDy=0;" edge="1" parent="1" target="WmJ-jYdtbcJeDlTPOBBi-13">
          <mxGeometry width="50" height="50" relative="1" as="geometry">
            <mxPoint x="760" y="650" as="sourcePoint" />
            <mxPoint x="692.5" y="700" as="targetPoint" />
          </mxGeometry>
        </mxCell>
        <mxCell id="WmJ-jYdtbcJeDlTPOBBi-31" value="" style="endArrow=classic;html=1;rounded=0;entryX=0.5;entryY=0;entryDx=0;entryDy=0;exitX=1;exitY=1;exitDx=0;exitDy=0;" edge="1" parent="1" target="WmJ-jYdtbcJeDlTPOBBi-14">
          <mxGeometry width="50" height="50" relative="1" as="geometry">
            <mxPoint x="879.5" y="650" as="sourcePoint" />
            <mxPoint x="945.54" y="700" as="targetPoint" />
          </mxGeometry>
        </mxCell>
        <mxCell id="WmJ-jYdtbcJeDlTPOBBi-32" value="" style="endArrow=classic;html=1;rounded=0;" edge="1" parent="1">
          <mxGeometry width="50" height="50" relative="1" as="geometry">
            <mxPoint x="740" y="790" as="sourcePoint" />
            <mxPoint x="760" y="820" as="targetPoint" />
          </mxGeometry>
        </mxCell>
        <mxCell id="WmJ-jYdtbcJeDlTPOBBi-33" value="" style="endArrow=classic;html=1;rounded=0;exitX=0.5;exitY=1;exitDx=0;exitDy=0;entryX=1;entryY=0;entryDx=0;entryDy=0;" edge="1" parent="1" source="WmJ-jYdtbcJeDlTPOBBi-18" target="WmJ-jYdtbcJeDlTPOBBi-15">
          <mxGeometry width="50" height="50" relative="1" as="geometry">
            <mxPoint x="750" y="800" as="sourcePoint" />
            <mxPoint x="770" y="830" as="targetPoint" />
          </mxGeometry>
        </mxCell>
      </root>
    </mxGraphModel>
  </diagram>
</mxfile>
